<svg width="17" height="10" viewBox="0 0 17 10" fill="none" xmlns="http://www.w3.org/2000/svg">
<path d="M0.758523 9V0.272727H4.2017C4.8608 0.272727 5.4233 0.390625 5.8892 0.62642C6.35795 0.859375 6.71449 1.19034 6.95881 1.61932C7.20597 2.04545 7.32955 2.54687 7.32955 3.12358C7.32955 3.70312 7.20455 4.2017 6.95455 4.61932C6.70455 5.03409 6.34233 5.35227 5.8679 5.57386C5.39631 5.79545 4.82528 5.90625 4.15483 5.90625H1.84943V4.4233H3.85653C4.20881 4.4233 4.50142 4.375 4.73438 4.27841C4.96733 4.18182 5.14063 4.03693 5.25426 3.84375C5.37074 3.65057 5.42898 3.41051 5.42898 3.12358C5.42898 2.83381 5.37074 2.58949 5.25426 2.39062C5.14063 2.19176 4.96591 2.04119 4.73011 1.93892C4.49716 1.83381 4.20313 1.78125 3.84801 1.78125H2.60369V9H0.758523ZM5.47159 5.02841L7.64062 9H5.60369L3.48153 5.02841H5.47159Z" fill="#0AC0E8"/>
<path d="M14.4205 3.09375C14.3608 2.88636 14.277 2.70312 14.169 2.54403C14.0611 2.3821 13.929 2.24574 13.7727 2.13494C13.6193 2.02131 13.4432 1.93466 13.2443 1.875C13.0483 1.81534 12.831 1.78551 12.5923 1.78551C12.1463 1.78551 11.7543 1.89631 11.4162 2.1179C11.081 2.33949 10.8196 2.66193 10.6321 3.08523C10.4446 3.50568 10.3509 4.01989 10.3509 4.62784C10.3509 5.2358 10.4432 5.75284 10.6278 6.17898C10.8125 6.60511 11.0739 6.9304 11.4119 7.15483C11.75 7.37642 12.1491 7.48722 12.6094 7.48722C13.027 7.48722 13.3835 7.41335 13.679 7.26562C13.9773 7.11506 14.2045 6.90341 14.3608 6.63068C14.5199 6.35795 14.5994 6.03551 14.5994 5.66335L14.9744 5.71875H12.7244V4.32955H16.3764V5.42898C16.3764 6.19602 16.2145 6.85511 15.8906 7.40625C15.5668 7.95455 15.1207 8.37784 14.5526 8.67614C13.9844 8.97159 13.3338 9.11932 12.6009 9.11932C11.7827 9.11932 11.0639 8.93892 10.4446 8.57812C9.82528 8.21449 9.34233 7.69886 8.99574 7.03125C8.65199 6.3608 8.48011 5.56534 8.48011 4.64489C8.48011 3.9375 8.58239 3.30682 8.78693 2.75284C8.99432 2.19602 9.28409 1.72443 9.65625 1.33807C10.0284 0.951704 10.4616 0.65767 10.956 0.455966C11.4503 0.254261 11.9858 0.153409 12.5625 0.153409C13.0568 0.153409 13.517 0.225852 13.9432 0.370739C14.3693 0.512784 14.7472 0.714489 15.0767 0.975852C15.4091 1.23722 15.6804 1.5483 15.8906 1.90909C16.1009 2.26705 16.2358 2.66193 16.2955 3.09375H14.4205Z" fill="#5D69DF"/>
</svg>
